<svg width="87" height="32" viewBox="0 0 87 32" fill="none" xmlns="http://www.w3.org/2000/svg">
<path d="M11.2941 8L18.2118 27.7961C18.5778 28.8209 18.9229 29.5634 19.2471 30.0235C19.5712 30.4837 19.8797 30.7765 20.1726 30.902C20.4758 31.017 20.8575 31.0954 21.3176 31.1373V31.3882H13.7725V31.1373C14.5464 31.1373 15.1425 31.0641 15.5608 30.9176C15.9791 30.7712 16.1882 30.3739 16.1882 29.7255C16.1882 29.3699 16.0889 28.8941 15.8902 28.298C15.8484 28.2144 15.8275 28.1516 15.8275 28.1098L13.7725 21.9765H5.77255L3.93725 27.6549C3.68627 28.4288 3.56078 29.051 3.56078 29.5216C3.56078 30.1699 3.72288 30.6039 4.04706 30.8235C4.37124 31.0327 4.83137 31.1373 5.42745 31.1373V31.3882H0V31.1373C0.773856 31.0641 1.39085 30.7712 1.85098 30.2588C2.32157 29.7359 2.72941 28.9464 3.07451 27.8902L9.6 8H11.2941ZM6.03922 21.1451H13.3961L9.63137 10.1804H9.56863L6.03922 21.1451Z" fill="url(#paint0_linear_1_4503)"/>
<path d="M43.3284 31.3882H38.4813V27.5608L38.4029 27.498C37.7336 29.0562 36.7297 30.1961 35.3911 30.9176C34.063 31.6392 32.6722 32 31.2186 32C29.5767 32 28.097 31.6078 26.7794 30.8235C25.4722 30.0392 24.5101 29.0719 23.8931 27.9216C23.4539 27.1059 23.1767 26.2588 23.0617 25.3804C22.9467 24.4915 22.8892 23.5712 22.8892 22.6196V11.1216C22.8892 10.4314 22.748 9.85098 22.4656 9.38039C22.1937 8.9098 21.5349 8.63268 20.4892 8.54902V8.28235H27.7519V8.54902C26.6852 8.67451 26.0055 8.98301 25.7127 9.47451C25.4199 9.96601 25.2735 10.515 25.2735 11.1216V22.4314C25.2735 24.732 25.5088 26.4314 25.9794 27.5294C26.4813 28.7007 27.2343 29.6157 28.2382 30.2745C29.2421 30.9333 30.382 31.2627 31.6578 31.2627C32.1911 31.2627 32.8238 31.1686 33.5558 30.9804C34.2879 30.7922 34.9728 30.4784 35.6107 30.0392C37.5245 28.732 38.4813 26.6353 38.4813 23.749V11.1216C38.4813 10.4837 38.3349 9.91895 38.0421 9.42745C37.7493 8.93595 37.0591 8.64314 35.9715 8.54902V8.28235H43.3597V8.54902C42.2931 8.60131 41.6081 8.89935 41.3048 9.44314C41.0016 9.98693 40.8499 10.5359 40.8499 11.0902V28.5961C40.8499 29.2026 40.9493 29.6837 41.148 30.0392C41.3571 30.3843 41.6395 30.6301 41.995 30.7765C42.3611 30.9229 42.8055 31.0431 43.3284 31.1373V31.3882Z" fill="url(#paint1_linear_1_4503)"/>
<path d="M45.3234 8.61176H45.0097V8.28235H53.0097C54.296 8.28235 55.3835 8.48105 56.2724 8.87843C57.1718 9.27582 57.8672 9.78301 58.3587 10.4C58.8607 11.0065 59.2162 11.6497 59.4254 12.3294C59.645 13.0092 59.7548 13.6784 59.7548 14.3373C59.7548 15.1739 59.577 15.9791 59.2215 16.7529C58.8764 17.5163 58.3378 18.1752 57.6058 18.7294C56.8842 19.2837 55.9796 19.6601 54.892 19.8588V19.9216C56.2724 20.5908 57.5483 21.919 58.7195 23.9059L60.8058 27.4353C61.7469 29.0144 62.4999 30.0131 63.0646 30.4314C63.6398 30.8497 64.2045 31.085 64.7587 31.1373V31.3882H60.5548C60.377 31.1582 60.2097 30.9386 60.0528 30.7294C59.896 30.5098 59.7286 30.2797 59.5509 30.0392C59.4463 29.8824 59.2894 29.6471 59.0803 29.3333C58.8816 29.0092 58.7613 28.8261 58.7195 28.7843L55.9587 24.2196C55.4045 23.2889 54.8345 22.5359 54.2489 21.9608C53.6737 21.3752 53.1352 20.9569 52.6332 20.7059C52.1313 20.4549 51.6764 20.298 51.2685 20.2353C50.8711 20.1725 50.4005 20.1412 49.8568 20.1412V28.5961C49.8568 30.2379 50.6934 31.085 52.3666 31.1373V31.3882H45.0097V31.1373C45.4698 31.1163 45.8777 31.0327 46.2332 30.8863C46.5888 30.7294 46.8816 30.468 47.1117 30.102C47.3522 29.7255 47.4724 29.2235 47.4724 28.5961V11.1216C47.4724 10.2013 47.2476 9.55294 46.7979 9.17647C46.3483 8.8 45.8568 8.61176 45.3234 8.61176ZM49.8568 19.5294H51.1744C52.5548 19.5294 53.6842 19.3307 54.5626 18.9333C55.4515 18.5359 56.0947 17.9712 56.492 17.2392C56.8894 16.4967 57.0881 15.5922 57.0881 14.5255C57.0881 13.6366 56.9103 12.7686 56.5548 11.9216C56.1992 11.0641 55.5927 10.3477 54.7352 9.77255C53.8881 9.18693 52.743 8.89412 51.2999 8.89412C50.7143 8.89412 50.2332 8.94118 49.8568 9.03529V19.5294Z" fill="url(#paint2_linear_1_4503)"/>
<path d="M76.1342 8L83.0518 27.7961C83.4178 28.8209 83.7629 29.5634 84.0871 30.0235C84.4113 30.4837 84.7198 30.7765 85.0126 30.902C85.3158 31.017 85.6975 31.0954 86.1577 31.1373V31.3882H78.6126V31.1373C79.3864 31.1373 79.9825 31.0641 80.4008 30.9176C80.8191 30.7712 81.0283 30.3739 81.0283 29.7255C81.0283 29.3699 80.9289 28.8941 80.7302 28.298C80.6884 28.2144 80.6675 28.1516 80.6675 28.1098L78.6126 21.9765H70.6126L68.7773 27.6549C68.5263 28.4288 68.4008 29.051 68.4008 29.5216C68.4008 30.1699 68.5629 30.6039 68.8871 30.8235C69.2113 31.0327 69.6714 31.1373 70.2675 31.1373V31.3882H64.84V31.1373C65.6139 31.0641 66.2309 30.7712 66.691 30.2588C67.1616 29.7359 67.5694 28.9464 67.9145 27.8902L74.44 8H76.1342ZM70.8792 21.1451H78.2361L74.4714 10.1804H74.4087L70.8792 21.1451Z" fill="url(#paint3_linear_1_4503)"/>
<defs>
<linearGradient id="paint0_linear_1_4503" x1="0" y1="20" x2="86.1577" y2="20" gradientUnits="userSpaceOnUse">
<stop stop-color="#FF3B30"/>
<stop offset="0.5" stop-color="#FF9100"/>
<stop offset="1" stop-color="#FF675F"/>
</linearGradient>
<linearGradient id="paint1_linear_1_4503" x1="0" y1="20" x2="86.1577" y2="20" gradientUnits="userSpaceOnUse">
<stop stop-color="#FF3B30"/>
<stop offset="0.5" stop-color="#FF9100"/>
<stop offset="1" stop-color="#FF675F"/>
</linearGradient>
<linearGradient id="paint2_linear_1_4503" x1="0" y1="20" x2="86.1577" y2="20" gradientUnits="userSpaceOnUse">
<stop stop-color="#FF3B30"/>
<stop offset="0.5" stop-color="#FF9100"/>
<stop offset="1" stop-color="#FF675F"/>
</linearGradient>
<linearGradient id="paint3_linear_1_4503" x1="0" y1="20" x2="86.1577" y2="20" gradientUnits="userSpaceOnUse">
<stop stop-color="#FF3B30"/>
<stop offset="0.5" stop-color="#FF9100"/>
<stop offset="1" stop-color="#FF675F"/>
</linearGradient>
</defs>
</svg>
