<svg width="24" height="24" viewBox="0 0 24 24" fill="none" xmlns="http://www.w3.org/2000/svg">
<path d="M20.004 7.1595C19.8825 7.254 17.7315 8.466 17.7315 11.1607C17.7315 14.277 20.4683 15.3795 20.55 15.4072C20.5373 15.4747 20.115 16.917 19.107 18.3878C18.2085 19.6807 17.2695 20.973 15.8415 20.973C14.4135 20.973 14.046 20.1435 12.3968 20.1435C10.7903 20.1435 10.2195 21 8.91302 21C7.60652 21 6.69527 19.803 5.64677 18.333C4.43327 16.6065 3.45227 13.9245 3.45227 11.379C3.45227 7.296 6.10727 5.1315 8.71952 5.1315C10.1078 5.1315 11.265 6.042 12.1365 6.042C12.966 6.042 14.2598 5.076 15.8393 5.076C16.4378 5.076 18.5888 5.13075 20.004 7.1595ZM15.0893 3.348C15.7425 2.5725 16.2045 1.49775 16.2045 0.42225C16.2045 0.273 16.1918 0.12225 16.1648 0C15.102 0.03975 13.8375 0.708 13.0748 1.59225C12.477 2.2725 11.9183 3.34725 11.9183 4.43775C11.9183 4.60125 11.9453 4.7655 11.958 4.818C12.0255 4.83075 12.1343 4.845 12.2438 4.845C13.197 4.845 14.3963 4.20675 15.0893 3.348Z" fill="black"/>
</svg>
