<svg width="24" height="24" viewBox="0 0 24 24" fill="none" xmlns="http://www.w3.org/2000/svg">
<path d="M21.7498 12.812C21.5904 14.6645 20.9053 16.4329 19.7751 17.9092C18.6448 19.3856 17.1164 20.5084 15.3697 21.1456C13.623 21.7828 11.7306 21.9079 9.9152 21.5061C8.09981 21.1043 6.43692 20.1924 5.12219 18.8777C3.80745 17.563 2.89556 15.9001 2.49379 14.0847C2.09203 12.2693 2.2171 10.3769 2.8543 8.6302C3.4915 6.88348 4.61432 5.35508 6.09066 4.22482C7.56699 3.09455 9.33542 2.40945 11.1879 2.25011C11.2864 2.24198 11.3855 2.25333 11.4796 2.28352C11.5737 2.3137 11.661 2.36213 11.7364 2.42602C11.8117 2.48992 11.8738 2.56804 11.919 2.65593C11.9642 2.74381 11.9916 2.83974 11.9998 2.93823C12.0079 3.03672 11.9965 3.13585 11.9664 3.22995C11.9362 3.32406 11.8878 3.41129 11.8239 3.48668C11.76 3.56207 11.6818 3.62414 11.594 3.66934C11.5061 3.71454 11.4101 3.74198 11.3116 3.75011C9.74376 3.88482 8.24697 4.46455 6.99738 5.42107C5.74779 6.3776 4.79739 7.67113 4.25802 9.14947C3.71864 10.6278 3.61272 12.2295 3.95273 13.766C4.29273 15.3024 5.06451 16.7099 6.17726 17.8226C7.29001 18.9354 8.69743 19.7071 10.2339 20.0472C11.7704 20.3872 13.3721 20.2812 14.8504 19.7419C16.3287 19.2025 17.6223 18.2521 18.5788 17.0025C19.5353 15.7529 20.1151 14.2561 20.2498 12.6882C20.2662 12.4893 20.3609 12.3051 20.5132 12.176C20.6655 12.047 20.8627 11.9837 21.0616 12.0001C21.2606 12.0165 21.4448 12.1113 21.5739 12.2635C21.7029 12.4158 21.7662 12.6131 21.7498 12.812ZM11.2498 6.75011V12.0001C11.2498 12.199 11.3288 12.3898 11.4694 12.5304C11.6101 12.6711 11.8009 12.7501 11.9998 12.7501H17.2498C17.4487 12.7501 17.6395 12.6711 17.7801 12.5304C17.9208 12.3898 17.9998 12.199 17.9998 12.0001C17.9998 11.8012 17.9208 11.6104 17.7801 11.4698C17.6395 11.3291 17.4487 11.2501 17.2498 11.2501H12.7498V6.75011C12.7498 6.55119 12.6708 6.36043 12.5301 6.21978C12.3895 6.07912 12.1987 6.00011 11.9998 6.00011C11.8009 6.00011 11.6101 6.07912 11.4694 6.21978C11.3288 6.36043 11.2498 6.55119 11.2498 6.75011ZM14.9998 4.50011C15.2223 4.50011 15.4398 4.43413 15.6248 4.31051C15.8098 4.18689 15.954 4.01119 16.0391 3.80563C16.1243 3.60006 16.1466 3.37386 16.1032 3.15563C16.0597 2.9374 15.9526 2.73695 15.7953 2.57961C15.6379 2.42228 15.4375 2.31513 15.2192 2.27172C15.001 2.22831 14.7748 2.25059 14.5693 2.33574C14.3637 2.42089 14.188 2.56508 14.0644 2.75009C13.9408 2.9351 13.8748 3.1526 13.8748 3.37511C13.8748 3.67348 13.9933 3.95962 14.2043 4.1706C14.4153 4.38158 14.7014 4.50011 14.9998 4.50011ZM18.3748 6.75011C18.5973 6.75011 18.8148 6.68413 18.9998 6.56051C19.1848 6.43689 19.329 6.26119 19.4141 6.05563C19.4993 5.85006 19.5216 5.62386 19.4782 5.40563C19.4347 5.1874 19.3276 4.98695 19.1703 4.82961C19.0129 4.67228 18.8125 4.56513 18.5942 4.52172C18.376 4.47831 18.1498 4.50059 17.9443 4.58574C17.7387 4.67089 17.563 4.81508 17.4394 5.00009C17.3158 5.1851 17.2498 5.4026 17.2498 5.62511C17.2498 5.92348 17.3683 6.20962 17.5793 6.4206C17.7903 6.63158 18.0764 6.75011 18.3748 6.75011ZM20.6248 10.1251C20.8473 10.1251 21.0648 10.0591 21.2498 9.93551C21.4348 9.81189 21.579 9.63619 21.6641 9.43062C21.7493 9.22506 21.7716 8.99886 21.7282 8.78063C21.6847 8.5624 21.5776 8.36195 21.4203 8.20461C21.2629 8.04728 21.0625 7.94013 20.8442 7.89672C20.626 7.85331 20.3998 7.87559 20.1943 7.96074C19.9887 8.04589 19.813 8.19008 19.6894 8.37509C19.5658 8.5601 19.4998 8.7776 19.4998 9.00011C19.4998 9.29847 19.6183 9.58462 19.8293 9.7956C20.0403 10.0066 20.3264 10.1251 20.6248 10.1251Z" fill="black"/>
</svg>
