<svg width="26" height="26" viewBox="0 0 26 26" fill="none" xmlns="http://www.w3.org/2000/svg">
<rect x="1" y="1" width="24" height="24" rx="4" fill="white"/>
<rect x="0.5" y="0.5" width="25" height="25" rx="4.5" stroke="black" stroke-opacity="0.05"/>
<mask id="mask0_120_3132" style="mask-type:alpha" maskUnits="userSpaceOnUse" x="1" y="1" width="24" height="24">
<rect x="1" y="1" width="24" height="24" fill="#D9D9D9"/>
</mask>
<g mask="url(#mask0_120_3132)">
<path d="M6 22C5.45 22 4.97917 21.8042 4.5875 21.4125C4.19583 21.0208 4 20.55 4 20V6C4 5.45 4.19583 4.97917 4.5875 4.5875C4.97917 4.19583 5.45 4 6 4H20C20.55 4 21.0208 4.19583 21.4125 4.5875C21.8042 4.97917 22 5.45 22 6V20C22 20.55 21.8042 21.0208 21.4125 21.4125C21.0208 21.8042 20.55 22 20 22H6ZM9 20V6H6V20H9ZM11 20H20V6H11V20Z" fill="black" fill-opacity="0.5"/>
</g>
</svg>
