<svg width="24" height="24" viewBox="0 0 24 24" fill="none" xmlns="http://www.w3.org/2000/svg">
<path d="M13.272 22.4242C18.4725 21.7943 22.5 17.3678 22.5 12C22.5 6.201 17.799 1.5 12 1.5C6.201 1.5 1.5 6.201 1.5 12C1.5 16.9245 4.89 21.057 9.4635 22.1917L9.666 21.333H12.8752L13.272 22.4242Z" fill="#0866FF"/>
<path d="M9.46352 22.1918V15.2093H7.29602V12H9.46352V10.6178C9.46352 7.04329 11.0798 5.38879 14.5868 5.38879C15.2513 5.38879 16.3973 5.51854 16.8683 5.64904V8.55529C16.62 8.53054 16.1873 8.51779 15.654 8.51779C13.932 8.51779 13.2683 9.16879 13.2683 10.8653V12H16.7003L16.1123 15.2085H13.2728V22.4235C11.9993 22.5773 10.7093 22.4985 9.46352 22.191" fill="white"/>
</svg>
