<svg width="24" height="24" viewBox="0 0 24 24" fill="none" xmlns="http://www.w3.org/2000/svg">
<path fill-rule="evenodd" clip-rule="evenodd" d="M14.5718 2.59275C18.708 3.72 21.75 7.50525 21.75 12C21.75 13.5165 21.4035 14.9528 20.7863 16.2323C20.7688 16.2793 20.7467 16.3246 20.7203 16.3673L20.7157 16.3748C19.1528 19.4827 15.9765 21.6397 12.2872 21.7455C12.2452 21.7501 12.2028 21.7511 12.1605 21.7485L12 21.75C6.615 21.75 2.25 17.385 2.25 12C2.25 6.615 6.615 2.25 12 2.25C12.8287 2.25 13.6328 2.3535 14.4008 2.54775C14.4593 2.55625 14.516 2.57125 14.571 2.59275M3.75 12C3.75 10.6605 4.0695 9.39525 4.63575 8.27625L5.6145 10.8795C5.70029 11.118 5.84543 11.3308 6.03622 11.4977C6.22701 11.6646 6.45717 11.7802 6.705 11.8335L8.71125 12.264L9.0645 12.9998L9.07125 13.0133C9.19666 13.2603 9.38712 13.4685 9.6221 13.6154C9.85709 13.7622 10.1277 13.8421 10.4047 13.8465H10.527L9.807 15.462C9.68656 15.7296 9.64724 16.0266 9.6939 16.3162C9.74056 16.6059 9.87115 16.8755 10.0695 17.0917L11.8335 18.9998L11.592 20.2402C7.22475 20.0273 3.75 16.4198 3.75 12ZM5.94225 7.488L6.717 5.6625C8.1987 4.42427 10.069 3.74719 12 3.75C12.6195 3.75 13.2225 3.81825 13.803 3.948L14.511 5.22975L11.994 7.506L10.8315 8.1465H8.84025C8.54573 8.14719 8.25785 8.23405 8.0121 8.39637C7.76635 8.55869 7.57348 8.78938 7.45725 9.06L6.969 10.2203L5.94225 7.488ZM9.0225 10.797L8.409 10.665L8.844 9.6465H10.8668C11.094 9.6465 11.3422 9.57825 11.5545 9.46575L12.7185 8.82225C12.8222 8.76413 12.9186 8.69389 13.0057 8.613L15.5295 6.333C15.7424 6.13524 15.8936 5.88017 15.9649 5.59848C16.0363 5.31679 16.0246 5.02049 15.9315 4.74525C17.238 5.45344 18.3289 6.50138 19.0891 7.77835C19.8492 9.05532 20.2503 10.5139 20.25 12C20.25 13.0125 20.067 13.9838 19.7332 14.88L15.3892 12.2078C15.2091 12.0936 15.0056 12.0213 14.7938 11.9963L12.6562 11.7067C12.381 11.6683 12.1004 11.7079 11.8465 11.8209C11.5926 11.934 11.3755 12.1161 11.22 12.3465L10.4167 12.3442L10.062 11.613C9.96301 11.4063 9.81775 11.2252 9.63749 11.0837C9.45722 10.9422 9.24679 10.8441 9.0225 10.797ZM19.0793 16.239C18.4455 17.2975 17.5824 18.2004 16.5534 18.8812C15.5245 19.562 14.3561 20.0033 13.134 20.1727L13.308 19.2885C13.352 19.0572 13.3417 18.8188 13.2778 18.5922C13.2139 18.3656 13.0981 18.157 12.9398 17.9827L11.1742 16.0778L12.4605 13.194L14.6002 13.4843L19.0793 16.239Z" fill="#0A82FF" style="mix-blend-mode:soft-light"/>
<path fill-rule="evenodd" clip-rule="evenodd" d="M14.5718 2.59275C18.708 3.72 21.75 7.50525 21.75 12C21.75 13.5165 21.4035 14.9528 20.7863 16.2323C20.7688 16.2793 20.7467 16.3246 20.7203 16.3673L20.7157 16.3748C19.1528 19.4827 15.9765 21.6397 12.2872 21.7455C12.2452 21.7501 12.2028 21.7511 12.1605 21.7485L12 21.75C6.615 21.75 2.25 17.385 2.25 12C2.25 6.615 6.615 2.25 12 2.25C12.8287 2.25 13.6328 2.3535 14.4008 2.54775C14.4593 2.55625 14.516 2.57125 14.571 2.59275M3.75 12C3.75 10.6605 4.0695 9.39525 4.63575 8.27625L5.6145 10.8795C5.70029 11.118 5.84543 11.3308 6.03622 11.4977C6.22701 11.6646 6.45717 11.7802 6.705 11.8335L8.71125 12.264L9.0645 12.9998L9.07125 13.0133C9.19666 13.2603 9.38712 13.4685 9.6221 13.6154C9.85709 13.7622 10.1277 13.8421 10.4047 13.8465H10.527L9.807 15.462C9.68656 15.7296 9.64724 16.0266 9.6939 16.3162C9.74056 16.6059 9.87115 16.8755 10.0695 17.0917L11.8335 18.9998L11.592 20.2402C7.22475 20.0273 3.75 16.4198 3.75 12ZM5.94225 7.488L6.717 5.6625C8.1987 4.42427 10.069 3.74719 12 3.75C12.6195 3.75 13.2225 3.81825 13.803 3.948L14.511 5.22975L11.994 7.506L10.8315 8.1465H8.84025C8.54573 8.14719 8.25785 8.23405 8.0121 8.39637C7.76635 8.55869 7.57348 8.78938 7.45725 9.06L6.969 10.2203L5.94225 7.488ZM9.0225 10.797L8.409 10.665L8.844 9.6465H10.8668C11.094 9.6465 11.3422 9.57825 11.5545 9.46575L12.7185 8.82225C12.8222 8.76413 12.9186 8.69389 13.0057 8.613L15.5295 6.333C15.7424 6.13524 15.8936 5.88017 15.9649 5.59848C16.0363 5.31679 16.0246 5.02049 15.9315 4.74525C17.238 5.45344 18.3289 6.50138 19.0891 7.77835C19.8492 9.05532 20.2503 10.5139 20.25 12C20.25 13.0125 20.067 13.9838 19.7332 14.88L15.3892 12.2078C15.2091 12.0936 15.0056 12.0213 14.7938 11.9963L12.6562 11.7067C12.381 11.6683 12.1004 11.7079 11.8465 11.8209C11.5926 11.934 11.3755 12.1161 11.22 12.3465L10.4167 12.3442L10.062 11.613C9.96301 11.4063 9.81775 11.2252 9.63749 11.0837C9.45722 10.9422 9.24679 10.8441 9.0225 10.797ZM19.0793 16.239C18.4455 17.2975 17.5824 18.2004 16.5534 18.8812C15.5245 19.562 14.3561 20.0033 13.134 20.1727L13.308 19.2885C13.352 19.0572 13.3417 18.8188 13.2778 18.5922C13.2139 18.3656 13.0981 18.157 12.9398 17.9827L11.1742 16.0778L12.4605 13.194L14.6002 13.4843L19.0793 16.239Z" fill="#0A82FF" fill-opacity="0.75"/>
</svg>
