<svg width="24" height="24" viewBox="0 0 24 24" fill="none" xmlns="http://www.w3.org/2000/svg">
<path d="M22.4229 9.118C22.3292 8.82974 22.1522 8.57568 21.9143 8.38783C21.6764 8.19998 21.3882 8.08673 21.0861 8.06237L15.5548 7.61612L13.4192 2.45143C13.3037 2.17001 13.1071 1.92929 12.8545 1.75987C12.6018 1.59046 12.3045 1.5 12.0003 1.5C11.6961 1.5 11.3988 1.59046 11.1461 1.75987C10.8934 1.92929 10.6969 2.17001 10.5814 2.45143L8.44763 7.61518L2.91357 8.06237C2.61092 8.08797 2.32256 8.20231 2.08461 8.39106C1.84666 8.57982 1.6697 8.8346 1.57591 9.12348C1.48212 9.41237 1.47566 9.7225 1.55735 10.015C1.63904 10.3076 1.80524 10.5695 2.03513 10.768L6.25388 14.4083L4.96857 19.8514C4.89765 20.147 4.91591 20.4569 5.02105 20.742C5.12618 21.0272 5.31347 21.2748 5.55925 21.4536C5.80504 21.6323 6.09829 21.7343 6.40197 21.7465C6.70565 21.7586 7.00612 21.6806 7.26544 21.5221L11.9998 18.6083L16.737 21.5221C16.9963 21.6796 17.2964 21.757 17.5996 21.7444C17.9027 21.7317 18.1954 21.6297 18.4406 21.451C18.6859 21.2724 18.8728 21.0252 18.9779 20.7406C19.083 20.4559 19.1015 20.1466 19.0311 19.8514L17.7411 14.4074L21.9598 10.7671C22.1916 10.5689 22.3593 10.3064 22.4417 10.0128C22.5242 9.71927 22.5176 9.40784 22.4229 9.118ZM20.9848 9.63081L16.4192 13.5683C16.3151 13.6581 16.2376 13.7747 16.1953 13.9055C16.153 14.0362 16.1474 14.1761 16.1792 14.3099L17.5742 20.1974C17.5778 20.2055 17.5782 20.2147 17.5752 20.223C17.5722 20.2314 17.5662 20.2383 17.5583 20.2424C17.5414 20.2555 17.5367 20.2527 17.5226 20.2424L12.3926 17.0877C12.2743 17.0155 12.1384 16.9776 11.9998 16.978V2.99987C12.0223 2.99987 12.0251 3.00737 12.0326 3.02424L14.3436 8.61174C14.3963 8.73946 14.4833 8.85012 14.595 8.93152C14.7067 9.01291 14.8386 9.06187 14.9764 9.07299L20.9679 9.55675C20.9829 9.55675 20.9914 9.55675 20.9998 9.58393C21.0083 9.61112 20.9998 9.62143 20.9848 9.63081Z" fill="black"/>
</svg>
