<svg width="24" height="24" viewBox="0 0 24 24" fill="none" xmlns="http://www.w3.org/2000/svg">
<path d="M3.43968 12.75L12.75 3.43969C12.8888 3.2998 13.054 3.18889 13.236 3.11341C13.418 3.03792 13.6132 2.99938 13.8103 3.00001H22.5C22.6989 3.00001 22.8897 3.07903 23.0303 3.21968C23.171 3.36033 23.25 3.5511 23.25 3.75001V12.4397C23.2506 12.6368 23.2121 12.832 23.1366 13.014C23.0611 13.196 22.9502 13.3612 22.8103 13.5L13.5 22.8103C13.3607 22.9496 13.1953 23.0602 13.0133 23.1356C12.8313 23.211 12.6362 23.2498 12.4392 23.2498C12.2422 23.2498 12.0471 23.211 11.8651 23.1356C11.6831 23.0602 11.5177 22.9496 11.3784 22.8103L3.43968 14.8716C3.30036 14.7323 3.18984 14.5669 3.11443 14.3849C3.03903 14.2029 3.00022 14.0078 3.00022 13.8108C3.00022 13.6138 3.03903 13.4187 3.11443 13.2367C3.18984 13.0547 3.30036 12.8893 3.43968 12.75ZM12.4397 21.75L21.75 12.4397V4.50001H13.8103L4.49999 13.8103L12.4397 21.75ZM17.25 7.87501C17.25 8.09751 17.316 8.31502 17.4396 8.50002C17.5632 8.68503 17.7389 8.82922 17.9445 8.91437C18.15 8.99952 18.3762 9.0218 18.5945 8.97839C18.8127 8.93498 19.0132 8.82784 19.1705 8.6705C19.3278 8.51317 19.435 8.31271 19.4784 8.09448C19.5218 7.87626 19.4995 7.65006 19.4144 7.44449C19.3292 7.23892 19.185 7.06322 19 6.9396C18.815 6.81599 18.5975 6.75001 18.375 6.75001C18.0766 6.75001 17.7905 6.86853 17.5795 7.07951C17.3685 7.29049 17.25 7.57664 17.25 7.87501Z" fill="black"/>
</svg>
