<svg width="24" height="24" viewBox="0 0 24 24" fill="none" xmlns="http://www.w3.org/2000/svg">
<path fill-rule="evenodd" clip-rule="evenodd" d="M5.66026 6.72076C4.42367 8.20179 3.74745 10.0706 3.75001 12C3.75001 14.0078 4.46776 15.8483 5.66026 17.2793L8.33176 14.6078C7.7891 13.8466 7.49825 12.9348 7.50001 12C7.50001 11.028 7.80751 10.128 8.33251 9.39301L5.66026 6.72076ZM5.06176 5.15026C3.2575 6.97312 2.24684 9.43522 2.25001 12C2.25001 14.67 3.32251 17.0888 5.06176 18.8498C5.08874 18.8817 5.11834 18.9113 5.15026 18.9383C6.97312 20.7425 9.43522 21.7532 12 21.75C14.67 21.75 17.0888 20.6775 18.8498 18.939C18.882 18.9116 18.9119 18.8815 18.939 18.849C20.7428 17.0262 21.7532 14.5644 21.75 12C21.75 9.33001 20.6775 6.91126 18.939 5.15026C18.9118 5.11831 18.8819 5.08871 18.8498 5.06176C17.0269 3.2575 14.5648 2.24684 12 2.25001C9.33001 2.25001 6.91051 3.32251 5.15026 5.06176C5.11834 5.08874 5.08874 5.11834 5.06176 5.15026ZM6.72076 5.66026L9.39226 8.33176C10.1534 7.7891 11.0652 7.49825 12 7.50001C12.972 7.50001 13.872 7.80751 14.6078 8.33251L17.2793 5.66026C15.7982 4.42367 13.9294 3.74745 12 3.75001C9.99226 3.75001 8.15101 4.46776 6.72001 5.66026M18.3398 6.72001L15.6683 9.39226C16.1918 10.128 16.5 11.028 16.5 12C16.5 12.972 16.1925 13.872 15.6675 14.6078L18.3398 17.2793C19.5763 15.7982 20.2526 13.9294 20.25 12C20.25 9.99226 19.5323 8.15101 18.3398 6.72076M17.28 18.3398L14.6085 15.6683C13.8472 16.2111 12.935 16.5019 12 16.5C11.0652 16.5015 10.1533 16.2104 9.39226 15.6675L6.72076 18.3398C8.20179 19.5763 10.0706 20.2526 12 20.25C14.0078 20.25 15.849 19.5323 17.28 18.3398ZM12 9.00001C11.2044 9.00001 10.4413 9.31608 9.87869 9.87869C9.31608 10.4413 9.00001 11.2044 9.00001 12C9.00001 12.7957 9.31608 13.5587 9.87869 14.1213C10.4413 14.6839 11.2044 15 12 15C12.7957 15 13.5587 14.6839 14.1213 14.1213C14.6839 13.5587 15 12.7957 15 12C15 11.2044 14.6839 10.4413 14.1213 9.87869C13.5587 9.31608 12.7957 9.00001 12 9.00001Z" fill="#0A82FF" style="mix-blend-mode:soft-light"/>
<path fill-rule="evenodd" clip-rule="evenodd" d="M5.66026 6.72076C4.42367 8.20179 3.74745 10.0706 3.75001 12C3.75001 14.0078 4.46776 15.8483 5.66026 17.2793L8.33176 14.6078C7.7891 13.8466 7.49825 12.9348 7.50001 12C7.50001 11.028 7.80751 10.128 8.33251 9.39301L5.66026 6.72076ZM5.06176 5.15026C3.2575 6.97312 2.24684 9.43522 2.25001 12C2.25001 14.67 3.32251 17.0888 5.06176 18.8498C5.08874 18.8817 5.11834 18.9113 5.15026 18.9383C6.97312 20.7425 9.43522 21.7532 12 21.75C14.67 21.75 17.0888 20.6775 18.8498 18.939C18.882 18.9116 18.9119 18.8815 18.939 18.849C20.7428 17.0262 21.7532 14.5644 21.75 12C21.75 9.33001 20.6775 6.91126 18.939 5.15026C18.9118 5.11831 18.8819 5.08871 18.8498 5.06176C17.0269 3.2575 14.5648 2.24684 12 2.25001C9.33001 2.25001 6.91051 3.32251 5.15026 5.06176C5.11834 5.08874 5.08874 5.11834 5.06176 5.15026ZM6.72076 5.66026L9.39226 8.33176C10.1534 7.7891 11.0652 7.49825 12 7.50001C12.972 7.50001 13.872 7.80751 14.6078 8.33251L17.2793 5.66026C15.7982 4.42367 13.9294 3.74745 12 3.75001C9.99226 3.75001 8.15101 4.46776 6.72001 5.66026M18.3398 6.72001L15.6683 9.39226C16.1918 10.128 16.5 11.028 16.5 12C16.5 12.972 16.1925 13.872 15.6675 14.6078L18.3398 17.2793C19.5763 15.7982 20.2526 13.9294 20.25 12C20.25 9.99226 19.5323 8.15101 18.3398 6.72076M17.28 18.3398L14.6085 15.6683C13.8472 16.2111 12.935 16.5019 12 16.5C11.0652 16.5015 10.1533 16.2104 9.39226 15.6675L6.72076 18.3398C8.20179 19.5763 10.0706 20.2526 12 20.25C14.0078 20.25 15.849 19.5323 17.28 18.3398ZM12 9.00001C11.2044 9.00001 10.4413 9.31608 9.87869 9.87869C9.31608 10.4413 9.00001 11.2044 9.00001 12C9.00001 12.7957 9.31608 13.5587 9.87869 14.1213C10.4413 14.6839 11.2044 15 12 15C12.7957 15 13.5587 14.6839 14.1213 14.1213C14.6839 13.5587 15 12.7957 15 12C15 11.2044 14.6839 10.4413 14.1213 9.87869C13.5587 9.31608 12.7957 9.00001 12 9.00001Z" fill="#0A82FF" fill-opacity="0.75"/>
</svg>
