<svg width="24" height="24" viewBox="0 0 24 24" fill="none" xmlns="http://www.w3.org/2000/svg">
<path d="M17.8988 19.8752C17.9531 19.9605 17.9895 20.056 18.0059 20.1558C18.0223 20.2556 18.0184 20.3577 17.9943 20.456C17.9703 20.5542 17.9266 20.6466 17.8659 20.7275C17.8052 20.8084 17.7288 20.8762 17.6412 20.9269C17.5536 20.9775 17.4567 21.0099 17.3563 21.0221C17.2559 21.0342 17.154 21.026 17.0569 20.9978C16.9597 20.9696 16.8693 20.9221 16.791 20.8581C16.7127 20.794 16.6482 20.7148 16.6013 20.6252C16.1288 19.8252 15.456 19.1622 14.6491 18.7016C13.8422 18.241 12.9291 17.9988 12 17.9988C11.0709 17.9988 10.1579 18.241 9.35102 18.7016C8.54412 19.1622 7.87125 19.8252 7.39879 20.6252C7.3519 20.7148 7.28737 20.794 7.20908 20.8581C7.13078 20.9221 7.04034 20.9696 6.94319 20.9978C6.84605 21.026 6.7442 21.0342 6.64379 21.0221C6.54338 21.0099 6.44647 20.9775 6.35889 20.9269C6.27132 20.8762 6.19489 20.8084 6.1342 20.7275C6.07352 20.6466 6.02983 20.5542 6.00576 20.456C5.9817 20.3577 5.97775 20.2556 5.99417 20.1558C6.01059 20.056 6.04702 19.9605 6.10129 19.8752C6.82841 18.6258 7.9371 17.6427 9.26441 17.0702C8.51753 16.4983 7.96863 15.7068 7.69485 14.8069C7.42108 13.907 7.4362 12.9438 7.73808 12.053C8.03997 11.1621 8.61346 10.3882 9.37792 9.84005C10.1424 9.29194 11.0594 8.99716 12 8.99716C12.9407 8.99716 13.8577 9.29194 14.6222 9.84005C15.3866 10.3882 15.9601 11.1621 16.262 12.053C16.5639 12.9438 16.579 13.907 16.3052 14.8069C16.0315 15.7068 15.4825 16.4983 14.7357 17.0702C16.063 17.6427 17.1717 18.6258 17.8988 19.8752ZM12 16.5002C12.5934 16.5002 13.1734 16.3242 13.6667 15.9946C14.1601 15.6649 14.5446 15.1964 14.7717 14.6482C14.9987 14.1 15.0582 13.4968 14.9424 12.9149C14.8266 12.333 14.5409 11.7984 14.1214 11.3788C13.7018 10.9593 13.1673 10.6736 12.5853 10.5578C12.0034 10.4421 11.4002 10.5015 10.852 10.7285C10.3038 10.9556 9.83528 11.3401 9.50563 11.8335C9.17599 12.3268 9.00004 12.9068 9.00004 13.5002C9.00004 14.2958 9.31611 15.0589 9.87872 15.6215C10.4413 16.1841 11.2044 16.5002 12 16.5002ZM6.75004 11.2502C6.75004 11.0513 6.67102 10.8605 6.53037 10.7198C6.38972 10.5792 6.19895 10.5002 6.00004 10.5002C5.57922 10.5001 5.16685 10.3821 4.80976 10.1594C4.45267 9.93677 4.16518 9.61844 3.97994 9.24058C3.79471 8.86273 3.71915 8.4405 3.76185 8.02185C3.80455 7.60321 3.9638 7.20493 4.22152 6.87225C4.47923 6.53958 4.82507 6.28584 5.21976 6.13987C5.61445 5.9939 6.04216 5.96154 6.45432 6.04646C6.86648 6.13139 7.24656 6.3302 7.55139 6.62031C7.85622 6.91043 8.07359 7.28021 8.17879 7.68767C8.22852 7.88036 8.35276 8.04541 8.52418 8.14651C8.6956 8.2476 8.90016 8.27646 9.09285 8.22673C9.28555 8.177 9.4506 8.05276 9.55169 7.88134C9.65279 7.70992 9.68164 7.50536 9.63192 7.31267C9.48589 6.74765 9.21002 6.22451 8.82624 5.78487C8.44246 5.34523 7.96137 5.00124 7.42125 4.78025C6.88112 4.55926 6.29688 4.46738 5.715 4.51191C5.13312 4.55645 4.56967 4.73618 4.06947 5.0368C3.56928 5.33742 3.14614 5.75063 2.83375 6.24356C2.52135 6.73648 2.32831 7.29552 2.26998 7.87618C2.21165 8.45684 2.28965 9.0431 2.49777 9.58831C2.70589 10.1335 3.03838 10.6226 3.46879 11.0167C2.44999 11.4587 1.56446 12.1594 0.90004 13.0492C0.780569 13.2084 0.729204 13.4084 0.757247 13.6054C0.785289 13.8024 0.890442 13.9802 1.04957 14.0997C1.2087 14.2192 1.40877 14.2705 1.60577 14.2425C1.80278 14.2144 1.98057 14.1093 2.10004 13.9502C2.55209 13.3425 3.14049 12.8495 3.81788 12.5108C4.49526 12.1721 5.24271 11.9972 6.00004 12.0002C6.19895 12.0002 6.38972 11.9212 6.53037 11.7805C6.67102 11.6398 6.75004 11.4491 6.75004 11.2502Z" fill="black"/>
<path d="M21.9401 8.31083C22.0807 8.17018 22.1597 7.97941 22.1597 7.7805C22.1597 7.58159 22.0807 7.39082 21.9401 7.25017C21.7994 7.10952 21.6086 7.0305 21.4097 7.0305H19.9097V5.5305C19.9097 5.33159 19.8307 5.14082 19.6901 5.00017C19.5494 4.85952 19.3586 4.7805 19.1597 4.7805C18.9608 4.7805 18.7701 4.85952 18.6294 5.00017C18.4888 5.14082 18.4097 5.33159 18.4097 5.5305V7.0305H16.9097C16.7108 7.0305 16.5201 7.10952 16.3794 7.25017C16.2388 7.39082 16.1597 7.58159 16.1597 7.7805C16.1597 7.97941 16.2388 8.17018 16.3794 8.31083C16.5201 8.45148 16.7108 8.5305 16.9097 8.5305H18.4097V10.0305C18.4097 10.2294 18.4888 10.4202 18.6294 10.5608C18.7701 10.7015 18.9608 10.7805 19.1597 10.7805C19.3586 10.7805 19.5494 10.7015 19.6901 10.5608C19.8307 10.4202 19.9097 10.2294 19.9097 10.0305V8.5305H21.4097C21.6086 8.5305 21.7994 8.45148 21.9401 8.31083Z" fill="black"/>
</svg>
